<svg version="1.1" xmlns="http://www.w3.org/2000/svg" xmlns:xlink="http://www.w3.org/1999/xlink" width="883" height="619"><defs/><g><g transform="translate(-214,-174) scale(1,1)"><rect fill="#C0C0C0" stroke="none" x="241" y="287" width="198" height="64" opacity="0.2"/></g><g transform="translate(-214,-174) scale(1,1)"><rect fill="#ffffff" stroke="none" x="234" y="280" width="198" height="64"/></g><g transform="translate(-214,-174) scale(1,1)"><path fill="none" stroke="#000000" d="M 234 280 L 432 280 L 432 344 L 234 344 L 234 280 Z Z" stroke-miterlimit="10"/></g><g transform="translate(-214,-174) scale(1,1)"><rect fill="#ffffff" stroke="none" x="224" y="287" width="20" height="10"/></g><g transform="translate(-214,-174) scale(1,1)"><path fill="none" stroke="#000000" d="M 224 287 L 244 287 L 244 297 L 224 297 L 224 287 Z Z" stroke-miterlimit="10"/></g><g transform="translate(-214,-174) scale(1,1)"><rect fill="#ffffff" stroke="none" x="224" y="307" width="20" height="10"/></g><g transform="translate(-214,-174) scale(1,1)"><path fill="none" stroke="#000000" d="M 224 307 L 244 307 L 244 317 L 224 317 L 224 307 Z Z" stroke-miterlimit="10"/></g><g transform="translate(-214,-174) scale(1,1)"><g><path fill="none" stroke="none"/><text fill="#000000" stroke="none" font-family="Arial" font-size="13px" font-style="normal" font-weight="normal" text-decoration="none" x="315.23095703125" y="297.5">«Table»</text></g></g><g transform="translate(-214,-174) scale(1,1)"><g><path fill="none" stroke="none"/><text fill="#000000" stroke="none" font-family="Arial" font-size="13px" font-style="normal" font-weight="bold" text-decoration="none" x="310.175048828125" y="312.5">Database</text></g></g><g transform="translate(-214,-174) scale(1,1)"><rect fill="#C0C0C0" stroke="none" x="673" y="191" width="198" height="64" opacity="0.2"/></g><g transform="translate(-214,-174) scale(1,1)"><rect fill="#ffffff" stroke="none" x="666" y="184" width="198" height="64"/></g><g transform="translate(-214,-174) scale(1,1)"><path fill="none" stroke="#000000" d="M 666 184 L 864 184 L 864 248 L 666 248 L 666 184 Z Z" stroke-miterlimit="10"/></g><g transform="translate(-214,-174) scale(1,1)"><rect fill="#ffffff" stroke="none" x="656" y="191" width="20" height="10"/></g><g transform="translate(-214,-174) scale(1,1)"><path fill="none" stroke="#000000" d="M 656 191 L 676 191 L 676 201 L 656 201 L 656 191 Z Z" stroke-miterlimit="10"/></g><g transform="translate(-214,-174) scale(1,1)"><rect fill="#ffffff" stroke="none" x="656" y="211" width="20" height="10"/></g><g transform="translate(-214,-174) scale(1,1)"><path fill="none" stroke="#000000" d="M 656 211 L 676 211 L 676 221 L 656 221 L 656 211 Z Z" stroke-miterlimit="10"/></g><g transform="translate(-214,-174) scale(1,1)"><g><path fill="none" stroke="none"/><text fill="#000000" stroke="none" font-family="Arial" font-size="13px" font-style="normal" font-weight="normal" text-decoration="none" x="730.609619140625" y="201.5">«Executable»</text></g></g><g transform="translate(-214,-174) scale(1,1)"><g><path fill="none" stroke="none"/><text fill="#000000" stroke="none" font-family="Arial" font-size="13px" font-style="normal" font-weight="bold" text-decoration="none" x="735.313232421875" y="216.5">Downloader</text></g></g><g transform="translate(-214,-174) scale(1,1)"><rect fill="#C0C0C0" stroke="none" x="889" y="287" width="198" height="64" opacity="0.2"/></g><g transform="translate(-214,-174) scale(1,1)"><rect fill="#ffffff" stroke="none" x="882" y="280" width="198" height="64"/></g><g transform="translate(-214,-174) scale(1,1)"><path fill="none" stroke="#000000" d="M 882 280 L 1080 280 L 1080 344 L 882 344 L 882 280 Z Z" stroke-miterlimit="10"/></g><g transform="translate(-214,-174) scale(1,1)"><rect fill="#ffffff" stroke="none" x="872" y="287" width="20" height="10"/></g><g transform="translate(-214,-174) scale(1,1)"><path fill="none" stroke="#000000" d="M 872 287 L 892 287 L 892 297 L 872 297 L 872 287 Z Z" stroke-miterlimit="10"/></g><g transform="translate(-214,-174) scale(1,1)"><rect fill="#ffffff" stroke="none" x="872" y="307" width="20" height="10"/></g><g transform="translate(-214,-174) scale(1,1)"><path fill="none" stroke="#000000" d="M 872 307 L 892 307 L 892 317 L 872 317 L 872 307 Z Z" stroke-miterlimit="10"/></g><g transform="translate(-214,-174) scale(1,1)"><g><path fill="none" stroke="none"/><text fill="#000000" stroke="none" font-family="Arial" font-size="13px" font-style="normal" font-weight="normal" text-decoration="none" x="958.90185546875" y="297.5">«Library»</text></g></g><g transform="translate(-214,-174) scale(1,1)"><g><path fill="none" stroke="none"/><text fill="#000000" stroke="none" font-family="Arial" font-size="13px" font-style="normal" font-weight="bold" text-decoration="none" x="952.043212890625" y="312.5">API Service</text></g></g><g transform="translate(-214,-174) scale(1,1)"><rect fill="#C0C0C0" stroke="none" x="329" y="399" width="614" height="384" opacity="0.2"/></g><g transform="translate(-214,-174) scale(1,1)"><rect fill="#ffffff" stroke="none" x="322" y="392" width="614" height="384"/></g><g transform="translate(-214,-174) scale(1,1)"><path fill="none" stroke="#000000" d="M 322 392 L 936 392 L 936 776 L 322 776 L 322 392 Z Z" stroke-miterlimit="10"/></g><g transform="translate(-214,-174) scale(1,1)"><rect fill="#ffffff" stroke="none" x="312" y="399" width="20" height="10"/></g><g transform="translate(-214,-174) scale(1,1)"><path fill="none" stroke="#000000" d="M 312 399 L 332 399 L 332 409 L 312 409 L 312 399 Z Z" stroke-miterlimit="10"/></g><g transform="translate(-214,-174) scale(1,1)"><rect fill="#ffffff" stroke="none" x="312" y="419" width="20" height="10"/></g><g transform="translate(-214,-174) scale(1,1)"><path fill="none" stroke="#000000" d="M 312 419 L 332 419 L 332 429 L 312 429 L 312 419 Z Z" stroke-miterlimit="10"/></g><g transform="translate(-214,-174) scale(1,1)"><g><path fill="none" stroke="none"/><text fill="#000000" stroke="none" font-family="Arial" font-size="13px" font-style="normal" font-weight="normal" text-decoration="none" x="594.609619140625" y="409.5">«Executable»</text></g></g><g transform="translate(-214,-174) scale(1,1)"><g><path fill="none" stroke="none"/><text fill="#000000" stroke="none" font-family="Arial" font-size="13px" font-style="normal" font-weight="bold" text-decoration="none" x="597.2724609375" y="424.5">Web Service</text></g></g><g transform="translate(-214,-174) scale(1,1)"><rect fill="#C0C0C0" stroke="none" x="433" y="463" width="156.7568359375" height="256" opacity="0.2"/></g><g transform="translate(-214,-174) scale(1,1)"><rect fill="#ffffff" stroke="none" x="426" y="456" width="156.7568359375" height="256"/></g><g transform="translate(-214,-174) scale(1,1)"><path fill="none" stroke="#000000" d="M 426 456 L 582.7568359375 456 L 582.7568359375 712 L 426 712 L 426 456 Z Z" stroke-miterlimit="10"/></g><g transform="translate(-214,-174) scale(1,1)"><rect fill="#ffffff" stroke="none" x="416" y="463" width="20" height="10"/></g><g transform="translate(-214,-174) scale(1,1)"><path fill="none" stroke="#000000" d="M 416 463 L 436 463 L 436 473 L 416 473 L 416 463 Z Z" stroke-miterlimit="10"/></g><g transform="translate(-214,-174) scale(1,1)"><rect fill="#ffffff" stroke="none" x="416" y="483" width="20" height="10"/></g><g transform="translate(-214,-174) scale(1,1)"><path fill="none" stroke="#000000" d="M 416 483 L 436 483 L 436 493 L 416 493 L 416 483 Z Z" stroke-miterlimit="10"/></g><g transform="translate(-214,-174) scale(1,1)"><g><path fill="none" stroke="none"/><text fill="#000000" stroke="none" font-family="Arial" font-size="13px" font-style="normal" font-weight="normal" text-decoration="none" x="469.988037109375" y="473.5">«Executable»</text></g></g><g transform="translate(-214,-174) scale(1,1)"><g><path fill="none" stroke="none"/><text fill="#000000" stroke="none" font-family="Arial" font-size="13px" font-style="normal" font-weight="bold" text-decoration="none" x="444.46728515625" y="488.5">Web Server [Backend]</text></g></g><g transform="translate(-214,-174) scale(1,1)"><rect fill="#C0C0C0" stroke="none" x="689" y="527" width="165" height="192" opacity="0.2"/></g><g transform="translate(-214,-174) scale(1,1)"><rect fill="#ffffff" stroke="none" x="682" y="520" width="165" height="192"/></g><g transform="translate(-214,-174) scale(1,1)"><path fill="none" stroke="#000000" d="M 682 520 L 847 520 L 847 712 L 682 712 L 682 520 Z Z" stroke-miterlimit="10"/></g><g transform="translate(-214,-174) scale(1,1)"><rect fill="#ffffff" stroke="none" x="672" y="527" width="20" height="10"/></g><g transform="translate(-214,-174) scale(1,1)"><path fill="none" stroke="#000000" d="M 672 527 L 692 527 L 692 537 L 672 537 L 672 527 Z Z" stroke-miterlimit="10"/></g><g transform="translate(-214,-174) scale(1,1)"><rect fill="#ffffff" stroke="none" x="672" y="547" width="20" height="10"/></g><g transform="translate(-214,-174) scale(1,1)"><path fill="none" stroke="#000000" d="M 672 547 L 692 547 L 692 557 L 672 557 L 672 547 Z Z" stroke-miterlimit="10"/></g><g transform="translate(-214,-174) scale(1,1)"><g><path fill="none" stroke="none"/><text fill="#000000" stroke="none" font-family="Arial" font-size="13px" font-style="normal" font-weight="normal" text-decoration="none" x="732.6455078125" y="537.5">«Document»</text></g></g><g transform="translate(-214,-174) scale(1,1)"><g><path fill="none" stroke="none"/><text fill="#000000" stroke="none" font-family="Arial" font-size="13px" font-style="normal" font-weight="bold" text-decoration="none" x="703.868408203125" y="552.5">Web Server [Frontend]</text></g></g><g transform="translate(-214,-174) scale(1,1)"><rect fill="#ffffff" stroke="none" x="665" y="600" width="14" height="14"/></g><g transform="translate(-214,-174) scale(1,1)"><path fill="none" stroke="#000000" d="M 665 600 L 679 600 L 679 614 L 665 614 L 665 600 Z Z" stroke-miterlimit="10"/></g><g transform="translate(-214,-174) scale(1,1)"><g><path fill="none" stroke="none"/><text fill="#000000" stroke="none" font-family="Arial" font-size="13px" font-style="normal" font-weight="normal" text-decoration="none" x="686.550537109375" y="616">login_initialization</text></g></g><g transform="translate(-214,-174) scale(1,1)"><rect fill="#ffffff" stroke="none" x="575.7568359375" y="600" width="14" height="14"/></g><g transform="translate(-214,-174) scale(1,1)"><path fill="none" stroke="#000000" d="M 575.7568359375 600 L 589.7568359375 600 L 589.7568359375 614 L 575.7568359375 614 L 575.7568359375 600 Z Z" stroke-miterlimit="10"/></g><g transform="translate(-214,-174) scale(1,1)"><g><path fill="none" stroke="none"/><text fill="#000000" stroke="none" font-family="Arial" font-size="13px" font-style="normal" font-weight="normal" text-decoration="none" x="479.33056640625" y="603">login_handling</text></g></g><g transform="translate(-214,-174) scale(1,1)"><path fill="none" stroke="#000000" d="M 591 607 L 664 607" stroke-miterlimit="10"/></g><g transform="translate(-214,-174) scale(1,1)"><rect fill="#ffffff" stroke="none" x="929" y="448" width="14" height="14"/></g><g transform="translate(-214,-174) scale(1,1)"><path fill="none" stroke="#000000" d="M 929 448 L 943 448 L 943 462 L 929 462 L 929 448 Z Z" stroke-miterlimit="10"/></g><g transform="translate(-214,-174) scale(1,1)"><g><path fill="none" stroke="none"/><text fill="#000000" stroke="none" font-family="Arial" font-size="13px" font-style="normal" font-weight="normal" text-decoration="none" x="950.649658203125" y="452">api_database_port</text></g></g><g transform="translate(-214,-174) scale(1,1)"><path fill="#C0C0C0" stroke="none" d="M 521.18994140625 330.5 C 521.18994140625 324.1487248 526.33866620625 319 532.68994140625 319 C 539.04121660625 319 544.18994140625 324.1487248 544.18994140625 330.5 C 544.18994140625 336.8512752 539.04121660625 342 532.68994140625 342 C 526.33866620625 342 521.18994140625 336.8512752 521.18994140625 330.5 Z" opacity="0.2"/></g><g transform="translate(-214,-174) scale(1,1)"><path fill="none" stroke="#000000" d="M 536.1213571785204 320.0733270582841 A 11.5 11.5 0 0 1 513.8786428214796 325.9266729417159" stroke-miterlimit="10"/></g><g transform="translate(-214,-174) scale(1,1)"><path fill="#ffffff" stroke="none" d="M 517.18994140625 323.5 C 517.18994140625 318.8055792 520.99552060625 315 525.68994140625 315 C 530.38436220625 315 534.18994140625 318.8055792 534.18994140625 323.5 C 534.18994140625 328.1944208 530.38436220625 332 525.68994140625 332 C 520.99552060625 332 517.18994140625 328.1944208 517.18994140625 323.5 Z"/></g><g transform="translate(-214,-174) scale(1,1)"><path fill="none" stroke="#000000" d="M 517.18994140625 323.5 C 517.18994140625 318.8055792 520.99552060625 315 525.68994140625 315 C 530.38436220625 315 534.18994140625 318.8055792 534.18994140625 323.5 C 534.18994140625 328.1944208 530.38436220625 332 525.68994140625 332 C 520.99552060625 332 517.18994140625 328.1944208 517.18994140625 323.5 Z" stroke-miterlimit="10"/></g><g transform="translate(-214,-174) scale(1,1)"><g><path fill="none" stroke="none"/><text fill="#000000" stroke="none" font-family="Arial" font-size="13px" font-style="normal" font-weight="bold" text-decoration="none" x="487.753173828125" y="354.5">status_check</text></g></g><g transform="translate(-214,-174) scale(1,1)"><path fill="none" stroke="#000000" d="M 547 391 L 528.1578947368421 335" stroke-miterlimit="10"/></g><g transform="translate(-214,-174) scale(1,1)"><rect fill="#ffffff" stroke="none" x="929" y="608" width="14" height="14"/></g><g transform="translate(-214,-174) scale(1,1)"><path fill="none" stroke="#000000" d="M 929 608 L 943 608 L 943 622 L 929 622 L 929 608 Z Z" stroke-miterlimit="10"/></g><g transform="translate(-214,-174) scale(1,1)"><g><path fill="none" stroke="none"/><text fill="#000000" stroke="none" font-family="Arial" font-size="13px" font-style="normal" font-weight="normal" text-decoration="none" x="950.267822265625" y="612">display_webpage</text></g></g><g transform="translate(-214,-174) scale(1,1)"><rect fill="#ffffff" stroke="none" x="558" y="449" width="14" height="14"/></g><g transform="translate(-214,-174) scale(1,1)"><path fill="none" stroke="#000000" d="M 558 449 L 572 449 L 572 463 L 558 463 L 558 449 Z Z" stroke-miterlimit="10"/></g><g transform="translate(-214,-174) scale(1,1)"><g><path fill="none" stroke="none"/><text fill="#000000" stroke="none" font-family="Arial" font-size="13px" font-style="normal" font-weight="normal" text-decoration="none" x="536.84912109375" y="447">data</text></g></g><g transform="translate(-214,-174) scale(1,1)"><path fill="none" stroke="#000000" d="M 573 456 L 928 455" stroke-miterlimit="10" stroke-dasharray="3"/></g><g transform="translate(-214,-174) scale(1,1)"><path fill="none" stroke="#000000" d="M 917.8492232116614 459.2381281945366 L 928 455 L 917.82550771276 450.8191260845495" stroke-miterlimit="10"/></g><g transform="translate(-214,-174) scale(1,1)"><path fill="none" stroke="#000000" d="M 928 615 L 848 615" stroke-miterlimit="10" stroke-dasharray="3"/></g><g transform="translate(-214,-174) scale(1,1)"><path fill="none" stroke="#000000" d="M 858.1626748576241 610.790482243984 L 848 615 L 858.1626748576241 619.209517756016" stroke-miterlimit="10"/></g><g transform="translate(-214,-174) scale(1,1)"><path fill="#C0C0C0" stroke="none" d="M 501.19091796875 226.5 C 501.19091796875 220.1487248 506.33964276875 215 512.69091796875 215 C 519.04219316875 215 524.19091796875 220.1487248 524.19091796875 226.5 C 524.19091796875 232.8512752 519.04219316875 238 512.69091796875 238 C 506.33964276875 238 501.19091796875 232.8512752 501.19091796875 226.5 Z" opacity="0.2"/></g><g transform="translate(-214,-174) scale(1,1)"><path fill="none" stroke="#000000" d="M 511.9694969755229 228.14746478037372 A 11.5 11.5 0 0 1 498.0305030244771 209.85253521962628" stroke-miterlimit="10"/></g><g transform="translate(-214,-174) scale(1,1)"><path fill="#ffffff" stroke="none" d="M 497.19091796875 219.5 C 497.19091796875 214.8055792 500.99649716875 211 505.69091796875 211 C 510.38533876875 211 514.19091796875 214.8055792 514.19091796875 219.5 C 514.19091796875 224.1944208 510.38533876875 228 505.69091796875 228 C 500.99649716875 228 497.19091796875 224.1944208 497.19091796875 219.5 Z"/></g><g transform="translate(-214,-174) scale(1,1)"><path fill="none" stroke="#000000" d="M 497.19091796875 219.5 C 497.19091796875 214.8055792 500.99649716875 211 505.69091796875 211 C 510.38533876875 211 514.19091796875 214.8055792 514.19091796875 219.5 C 514.19091796875 224.1944208 510.38533876875 228 505.69091796875 228 C 500.99649716875 228 497.19091796875 224.1944208 497.19091796875 219.5 Z" stroke-miterlimit="10"/></g><g transform="translate(-214,-174) scale(1,1)"><g><path fill="none" stroke="none"/><text fill="#000000" stroke="none" font-family="Arial" font-size="13px" font-style="normal" font-weight="bold" text-decoration="none" x="493.0400390625" y="250.5">data</text></g></g><g transform="translate(-214,-174) scale(1,1)"><path fill="none" stroke="#000000" d="M 655 223 L 517.19091796875 221.8350972020349" stroke-miterlimit="10"/></g><g transform="translate(-214,-174) scale(1,1)"><rect fill="#ffffff" stroke="none" x="857" y="199" width="14" height="14"/></g><g transform="translate(-214,-174) scale(1,1)"><path fill="none" stroke="#000000" d="M 857 199 L 871 199 L 871 213 L 857 213 L 857 199 Z Z" stroke-miterlimit="10"/></g><g transform="translate(-214,-174) scale(1,1)"><g><path fill="none" stroke="none"/><text fill="#000000" stroke="none" font-family="Arial" font-size="13px" font-style="normal" font-weight="normal" text-decoration="none" x="870.688720703125" y="196">GeoPOI_communication</text></g></g><g transform="translate(-214,-174) scale(1,1)"><rect fill="#ffffff" stroke="none" x="575" y="705" width="14" height="14"/></g><g transform="translate(-214,-174) scale(1,1)"><path fill="none" stroke="#000000" d="M 575 705 L 589 705 L 589 719 L 575 719 L 575 705 Z Z" stroke-miterlimit="10"/></g><g transform="translate(-214,-174) scale(1,1)"><g><path fill="none" stroke="none"/><text fill="#000000" stroke="none" font-family="Arial" font-size="13px" font-style="normal" font-weight="normal" text-decoration="none" x="503.974609375" y="707">gmap_data</text></g></g><g transform="translate(-214,-174) scale(1,1)"><rect fill="#ffffff" stroke="none" x="576" y="769" width="14" height="14"/></g><g transform="translate(-214,-174) scale(1,1)"><path fill="none" stroke="#000000" d="M 576 769 L 590 769 L 590 783 L 576 783 L 576 769 Z Z" stroke-miterlimit="10"/></g><g transform="translate(-214,-174) scale(1,1)"><g><path fill="none" stroke="none"/><text fill="#000000" stroke="none" font-family="Arial" font-size="13px" font-style="normal" font-weight="normal" text-decoration="none" x="590.912353515625" y="795">gmap_communication</text></g></g><g transform="translate(-214,-174) scale(1,1)"><rect fill="#ffffff" stroke="none" x="678" y="705" width="14" height="14"/></g><g transform="translate(-214,-174) scale(1,1)"><path fill="none" stroke="#000000" d="M 678 705 L 692 705 L 692 719 L 678 719 L 678 705 Z Z" stroke-miterlimit="10"/></g><g transform="translate(-214,-174) scale(1,1)"><g><path fill="none" stroke="none"/><text fill="#000000" stroke="none" font-family="Arial" font-size="13px" font-style="normal" font-weight="normal" text-decoration="none" x="686.392333984375" y="700">gmap_display</text></g></g><g transform="translate(-214,-174) scale(1,1)"><path fill="none" stroke="#000000" d="M 590 712 L 677 712" stroke-miterlimit="10"/></g><g transform="translate(-214,-174) scale(1,1)"><path fill="none" stroke="#000000" d="M 582 720 L 583 768" stroke-miterlimit="10" stroke-dasharray="3"/></g><g transform="translate(-214,-174) scale(1,1)"><path fill="none" stroke="#000000" d="M 578.5797190094205 757.927209127341 L 583 768 L 586.9969280683424 757.7518506052802" stroke-miterlimit="10"/></g><g transform="translate(-214,-174) scale(1,1)"><rect fill="#ffffff" stroke="none" x="347" y="769" width="14" height="14"/></g><g transform="translate(-214,-174) scale(1,1)"><path fill="none" stroke="#000000" d="M 347 769 L 361 769 L 361 783 L 347 783 L 347 769 Z Z" stroke-miterlimit="10"/></g><g transform="translate(-214,-174) scale(1,1)"><g><path fill="none" stroke="none"/><text fill="#000000" stroke="none" font-family="Arial" font-size="13px" font-style="normal" font-weight="normal" text-decoration="none" x="366.7900390625" y="795">stripe_port</text></g></g><g transform="translate(-214,-174) scale(1,1)"><rect fill="#ffffff" stroke="none" x="409" y="632" width="14" height="14"/></g><g transform="translate(-214,-174) scale(1,1)"><path fill="none" stroke="#000000" d="M 409 632 L 423 632 L 423 646 L 409 646 L 409 632 Z Z" stroke-miterlimit="10"/></g><g transform="translate(-214,-174) scale(1,1)"><g><path fill="none" stroke="none"/><text fill="#000000" stroke="none" font-family="Arial" font-size="13px" font-style="normal" font-weight="normal" text-decoration="none" x="430.089599609375" y="644">stripe_token</text></g></g><g transform="translate(-214,-174) scale(1,1)"><path fill="none" stroke="#000000" d="M 416 647 L 416 704 L 352 704 L 354 768" stroke-miterlimit="10" stroke-dasharray="3"/></g><g transform="translate(-214,-174) scale(1,1)"><path fill="none" stroke="#000000" d="M 349.4751075356859 757.9737669991969 L 354 768 L 357.8900351989678 757.7108005097193" stroke-miterlimit="10"/></g><g transform="translate(-214,-174) scale(1,1)"><rect fill="#ffffff" stroke="none" x="305" y="544" width="14" height="14"/></g><g transform="translate(-214,-174) scale(1,1)"><path fill="none" stroke="#000000" d="M 305 544 L 319 544 L 319 558 L 305 558 L 305 544 Z Z" stroke-miterlimit="10"/></g><g transform="translate(-214,-174) scale(1,1)"><g><path fill="none" stroke="none"/><text fill="#000000" stroke="none" font-family="Arial" font-size="13px" font-style="normal" font-weight="normal" text-decoration="none" x="166.735107421875" y="572">service_database_port</text></g></g><g transform="translate(-214,-174) scale(1,1)"><path fill="none" stroke="#000000" d="M 408 639 L 352 640 L 352 552 L 320 551" stroke-miterlimit="10"/></g><g transform="translate(-214,-174) scale(1,1)"><path fill="none" stroke="#000000" d="M 575 607 L 472 608 L 472 552 L 320 551" stroke-miterlimit="10"/></g><g transform="translate(-214,-174) scale(1,1)"><rect fill="#ffffff" stroke="none" x="1073" y="286" width="14" height="14"/></g><g transform="translate(-214,-174) scale(1,1)"><path fill="none" stroke="#000000" d="M 1073 286 L 1087 286 L 1087 300 L 1073 300 L 1073 286 Z Z" stroke-miterlimit="10"/></g><g transform="translate(-214,-174) scale(1,1)"><g><path fill="none" stroke="none"/><text fill="#000000" stroke="none" font-family="Arial" font-size="13px" font-style="normal" font-weight="normal" text-decoration="none" x="1030.833251953125" y="276">client_api_service</text></g></g><g transform="translate(-214,-174) scale(1,1)"><path fill="none" stroke="#000000" d="M 401 279 L 494.19091796875 227.23549107142858" stroke-miterlimit="10"/></g><g transform="translate(-214,-174) scale(1,1)"><path fill="none" stroke="#000000" d="M 433 325 L 514.18994140625 324.6450089164402" stroke-miterlimit="10"/></g><g transform="translate(-214,-174) scale(1,1)"><rect fill="#ffffff" stroke="none" x="1057" y="337" width="14" height="14"/></g><g transform="translate(-214,-174) scale(1,1)"><path fill="none" stroke="#000000" d="M 1057 337 L 1071 337 L 1071 351 L 1057 351 L 1057 337 Z Z" stroke-miterlimit="10"/></g><g transform="translate(-214,-174) scale(1,1)"><g><path fill="none" stroke="none"/><text fill="#000000" stroke="none" font-family="Arial" font-size="13px" font-style="normal" font-weight="normal" text-decoration="none" x="918.024169921875" y="364">webserver_api_service</text></g></g><g transform="translate(-214,-174) scale(1,1)"><path fill="none" stroke="#000000" d="M 944 455 L 1064 456 L 1064 352" stroke-miterlimit="10"/></g><g transform="translate(-214,-174) scale(1,1)"><rect fill="#ffffff" stroke="none" x="232" y="337" width="14" height="14"/></g><g transform="translate(-214,-174) scale(1,1)"><path fill="none" stroke="#000000" d="M 232 337 L 246 337 L 246 351 L 232 351 L 232 337 Z Z" stroke-miterlimit="10"/></g><g transform="translate(-214,-174) scale(1,1)"><g><path fill="none" stroke="none"/><text fill="#000000" stroke="none" font-family="Arial" font-size="13px" font-style="normal" font-weight="normal" text-decoration="none" x="246.583251953125" y="363">service_communication</text></g></g><g transform="translate(-214,-174) scale(1,1)"><path fill="none" stroke="#000000" d="M 304 551 L 240 552 L 239 352" stroke-miterlimit="10"/></g><g transform="translate(-214,-174) scale(1,1)"><rect fill="#ffffff" stroke="none" x="665" y="642" width="14" height="14"/></g><g transform="translate(-214,-174) scale(1,1)"><path fill="none" stroke="#000000" d="M 665 642 L 679 642 L 679 656 L 665 656 L 665 642 Z Z" stroke-miterlimit="10"/></g><g transform="translate(-214,-174) scale(1,1)"><g><path fill="none" stroke="none"/><text fill="#000000" stroke="none" font-family="Arial" font-size="13px" font-style="normal" font-weight="normal" text-decoration="none" x="686.899658203125" y="652">website_data_request</text></g></g><g transform="translate(-214,-174) scale(1,1)"><rect fill="#ffffff" stroke="none" x="575.7568359375" y="659" width="14" height="14"/></g><g transform="translate(-214,-174) scale(1,1)"><path fill="none" stroke="#000000" d="M 575.7568359375 659 L 589.7568359375 659 L 589.7568359375 673 L 575.7568359375 673 L 575.7568359375 659 Z Z" stroke-miterlimit="10"/></g><g transform="translate(-214,-174) scale(1,1)"><g><path fill="none" stroke="none"/><text fill="#000000" stroke="none" font-family="Arial" font-size="13px" font-style="normal" font-weight="normal" text-decoration="none" x="438.7587890625" y="686">website_data_handling</text></g></g><g transform="translate(-214,-174) scale(1,1)"><path fill="none" stroke="#000000" d="M 664 651 L 591 664" stroke-miterlimit="10"/></g><g transform="translate(-214,-174) scale(1,1)"><rect fill="#ffffff" stroke="none" x="425" y="288" width="14" height="14"/></g><g transform="translate(-214,-174) scale(1,1)"><path fill="none" stroke="#000000" d="M 425 288 L 439 288 L 439 302 L 425 302 L 425 288 Z Z" stroke-miterlimit="10"/></g><g transform="translate(-214,-174) scale(1,1)"><g><path fill="none" stroke="none"/><text fill="#000000" stroke="none" font-family="Arial" font-size="13px" font-style="normal" font-weight="normal" text-decoration="none" x="438.497802734375" y="285">api_communication</text></g></g><g transform="translate(-214,-174) scale(1,1)"><rect fill="#ffffff" stroke="none" x="865" y="289" width="14" height="14"/></g><g transform="translate(-214,-174) scale(1,1)"><path fill="none" stroke="#000000" d="M 865 289 L 879 289 L 879 303 L 865 303 L 865 289 Z Z" stroke-miterlimit="10"/></g><g transform="translate(-214,-174) scale(1,1)"><g><path fill="none" stroke="none"/><text fill="#000000" stroke="none" font-family="Arial" font-size="13px" font-style="normal" font-weight="normal" text-decoration="none" x="790.945068359375" y="285">query_request</text></g></g><g transform="translate(-214,-174) scale(1,1)"><path fill="none" stroke="#000000" d="M 864 296 L 440 295" stroke-miterlimit="10"/></g></g></svg>